<svg xmlns="http://www.w3.org/2000/svg">
  <!-- Reusable line icons. They inherit the current text color. -->
  <symbol id="icon-dollar" viewBox="0 0 64 64"><circle cx="32" cy="32" r="27" fill="none" stroke="currentColor"/><path d="M39 20c-2-2-5-3-8-3-5 0-9 3-9 8s4 7 10 8 10 3 10 8-5 8-10 8c-5 0-9-2-11-5M32 11v42" fill="none" stroke="currentColor"/></symbol>
  <symbol id="icon-chart" viewBox="0 0 64 64"><path d="M10 51h44M15 47V35h8v12m8 0V27h8v20m8 0V18h8v29M13 27c9-1 14-5 20-11l6 2 12-11m-6 0h6v6" fill="none" stroke="currentColor"/></symbol>
  <symbol id="icon-calendar" viewBox="0 0 64 64"><rect x="10" y="14" width="44" height="40" rx="3" fill="none" stroke="currentColor"/><path d="M10 25h44M21 9v11M43 9v11" fill="none" stroke="currentColor"/></symbol>
  <symbol id="icon-pie" viewBox="0 0 64 64"><path d="M29 7a25 25 0 1 0 28 28H29zM35 7v22h22A25 25 0 0 0 35 7z" fill="none" stroke="currentColor"/></symbol>
  <symbol id="icon-pin" viewBox="0 0 64 64"><path d="M32 56S15 39 15 25a17 17 0 1 1 34 0c0 14-17 31-17 31z" fill="none" stroke="currentColor"/><circle cx="32" cy="25" r="6" fill="none" stroke="currentColor"/></symbol>
  <symbol id="icon-handshake" viewBox="0 0 64 64"><path d="M5 22l10-9 12 5 10-4 8 3 14 10-8 15-6-2-9 9-5-3-4 1-3-4-5-1-2-4-5-2zm18-2 7 5c3 2 5 1 8-2l4-4m-22 18 9-9m-4 14 8-9m-2 13 7-8m7 2-12-11" fill="none" stroke="currentColor"/></symbol>
  <symbol id="icon-bottle" viewBox="0 0 64 64"><path d="M25 7h14v10l5 7v31H20V24l5-7zm0 10h14M20 31h24" fill="none" stroke="currentColor"/></symbol>
  <symbol id="icon-shield" viewBox="0 0 64 64"><path d="M32 6c8 5 15 6 23 7v18c0 13-8 22-23 28C17 53 9 44 9 31V13c8-1 15-2 23-7zM21 32l7 7 15-17" fill="none" stroke="currentColor"/></symbol>
  <symbol id="icon-agave" viewBox="0 0 64 64"><path d="M32 56V11m0 45L19 22l8 34M32 56l13-34-8 34M32 56L8 34l16 22m8 0 24-22-16 22M14 48l-5 7h46l-5-7" fill="none" stroke="currentColor"/></symbol>
  <symbol id="icon-mixer" viewBox="0 0 64 64"><path d="M24 7h16l3 9-5 7v32H26V23l-5-7zM22 16h20M26 30h12" fill="none" stroke="currentColor"/></symbol>
  <symbol id="icon-usa" viewBox="0 0 64 64"><path d="M7 20l8-2 6 3 6-3 7 4 8-2 5 5 8-1-3 7 3 5-8 2-5 7-7-2-6 5-8-6-6 1-1-7-5-4z" fill="none" stroke="currentColor"/></symbol>
  <symbol id="icon-truck" viewBox="0 0 64 64"><path d="M7 16h32v27H7zm32 10h10l8 10v7H39zM17 51a6 6 0 1 0 0-12 6 6 0 0 0 0 12zm31 0a6 6 0 1 0 0-12 6 6 0 0 0 0 12z" fill="none" stroke="currentColor"/></symbol>
  <symbol id="icon-target" viewBox="0 0 64 64"><circle cx="29" cy="35" r="22" fill="none" stroke="currentColor"/><circle cx="29" cy="35" r="12" fill="none" stroke="currentColor"/><circle cx="29" cy="35" r="3"/><path d="M29 35l21-21m-1-8 1 8 8 1M42 15l8-1" fill="none" stroke="currentColor"/></symbol>
  <symbol id="icon-factory" viewBox="0 0 64 64"><path d="M8 55V27l14 8V25l14 9V13h10v23h10v19zM15 44h6m7 0h6m7 0h6" fill="none" stroke="currentColor"/></symbol>
  <symbol id="icon-crown" viewBox="0 0 64 64"><path d="M10 20l12 12 10-20 10 20 12-12-5 29H15zM15 54h34" fill="none" stroke="currentColor"/></symbol>
  <symbol id="icon-team" viewBox="0 0 64 64"><circle cx="32" cy="22" r="9" fill="none" stroke="currentColor"/><circle cx="12" cy="27" r="6" fill="none" stroke="currentColor"/><circle cx="52" cy="27" r="6" fill="none" stroke="currentColor"/><path d="M17 55v-8c0-9 6-15 15-15s15 6 15 15v8M3 51v-5c0-7 4-11 10-11 3 0 5 1 7 3m41 13v-5c0-7-4-11-10-11-3 0-5 1-7 3" fill="none" stroke="currentColor"/></symbol>
  <symbol id="icon-leaf" viewBox="0 0 64 64"><path d="M12 52C10 25 28 9 54 10c1 25-16 43-42 42zM13 51c11-15 22-23 36-32" fill="none" stroke="currentColor"/></symbol>
</svg>
